<svg width="65" height="64" viewBox="0 0 65 64" fill="none" xmlns="http://www.w3.org/2000/svg">
  <g clip-path="url(#clip0_0_4)">
    <rect x="0.872215" width="64" height="64" rx="32" fill="#111D28" />
    <path
      d="M12.3836 25V13.3636H14.8438V22.9716H19.8324V25H12.3836ZM31.0618 19.1818C31.0618 20.4508 30.8212 21.5303 30.3402 22.4205C29.8629 23.3106 29.2114 23.9905 28.3856 24.4602C27.5637 24.9261 26.6394 25.1591 25.6129 25.1591C24.5788 25.1591 23.6508 24.9242 22.8288 24.4545C22.0068 23.9848 21.3572 23.3049 20.8799 22.4148C20.4027 21.5246 20.164 20.447 20.164 19.1818C20.164 17.9129 20.4027 16.8333 20.8799 15.9432C21.3572 15.053 22.0068 14.375 22.8288 13.9091C23.6508 13.4394 24.5788 13.2045 25.6129 13.2045C26.6394 13.2045 27.5637 13.4394 28.3856 13.9091C29.2114 14.375 29.8629 15.053 30.3402 15.9432C30.8212 16.8333 31.0618 17.9129 31.0618 19.1818ZM28.5674 19.1818C28.5674 18.3598 28.4443 17.6667 28.1981 17.1023C27.9557 16.5379 27.6129 16.1098 27.1697 15.8182C26.7265 15.5265 26.2076 15.3807 25.6129 15.3807C25.0182 15.3807 24.4993 15.5265 24.0561 15.8182C23.6129 16.1098 23.2682 16.5379 23.022 17.1023C22.7796 17.6667 22.6584 18.3598 22.6584 19.1818C22.6584 20.0038 22.7796 20.697 23.022 21.2614C23.2682 21.8258 23.6129 22.2538 24.0561 22.5455C24.4993 22.8371 25.0182 22.983 25.6129 22.983C26.2076 22.983 26.7265 22.8371 27.1697 22.5455C27.6129 22.2538 27.9557 21.8258 28.1981 21.2614C28.4443 20.697 28.5674 20.0038 28.5674 19.1818ZM42.5112 17.4375H40.0226C39.9772 17.1155 39.8844 16.8295 39.7442 16.5795C39.6041 16.3258 39.4241 16.1098 39.2044 15.9318C38.9847 15.7538 38.7309 15.6174 38.4431 15.5227C38.159 15.428 37.8503 15.3807 37.5169 15.3807C36.9147 15.3807 36.39 15.5303 35.9431 15.8295C35.4961 16.125 35.1495 16.5568 34.9033 17.125C34.6571 17.6894 34.534 18.375 34.534 19.1818C34.534 20.0114 34.6571 20.7083 34.9033 21.2727C35.1533 21.8371 35.5018 22.2633 35.9487 22.5511C36.3957 22.839 36.9128 22.983 37.4999 22.983C37.8294 22.983 38.1344 22.9394 38.4147 22.8523C38.6987 22.7652 38.9506 22.6383 39.1703 22.4716C39.39 22.3011 39.5719 22.0947 39.7158 21.8523C39.8635 21.6098 39.9658 21.3333 40.0226 21.0227L42.5112 21.0341C42.4469 21.5682 42.2859 22.0833 42.0283 22.5795C41.7745 23.072 41.4317 23.5133 40.9999 23.9034C40.5719 24.2898 40.0605 24.5966 39.4658 24.8239C38.8749 25.0473 38.2063 25.1591 37.4601 25.1591C36.4222 25.1591 35.4942 24.9242 34.676 24.4545C33.8616 23.9848 33.2177 23.3049 32.7442 22.4148C32.2745 21.5246 32.0397 20.447 32.0397 19.1818C32.0397 17.9129 32.2783 16.8333 32.7556 15.9432C33.2328 15.053 33.8806 14.375 34.6987 13.9091C35.5169 13.4394 36.4374 13.2045 37.4601 13.2045C38.1344 13.2045 38.7594 13.2992 39.3351 13.4886C39.9147 13.678 40.4279 13.9545 40.8749 14.3182C41.3219 14.678 41.6855 15.1193 41.9658 15.642C42.2499 16.1648 42.4317 16.7633 42.5112 17.4375ZM43.6355 25V13.3636H46.0957V18.4943H46.2491L50.4366 13.3636H53.3855L49.0673 18.5739L53.4366 25H50.4934L47.3059 20.2159L46.0957 21.6932V25H43.6355Z"
      fill="url(#paint0_linear_0_4)" />
    <g clip-path="url(#clip1_0_4)">
      <path
        d="M26.6266 65.1436C19.9244 61.2858 12.6833 60.3248 7.51183 62.0943C8.01835 63.7446 8.68406 65.3416 9.49954 66.863C13.9983 66.7409 18.9155 67.9432 23.4971 70.5799C28.0787 73.2165 31.5893 76.8666 33.7445 80.8188C35.4706 80.7588 37.1869 80.5322 38.8695 80.1418C37.8013 74.782 33.3269 69.0025 26.6266 65.1436Z"
        fill="url(#paint1_linear_0_4)" />
      <path
        d="M58.4274 49.2481C57.5633 45.7936 56.0122 42.5486 53.8663 39.7068C51.7204 36.8651 49.0237 34.4849 45.9375 32.7084C42.8513 30.9319 39.4388 29.7955 35.9037 29.367C32.3686 28.9386 28.7835 29.227 25.3623 30.2148C31.087 30.8922 37.4471 33.0149 43.6903 36.6086C49.9337 40.2023 54.9679 44.635 58.4274 49.2481Z"
        fill="url(#paint2_linear_0_4)" />
      <path
        d="M50.1528 61.9632C47.2045 57.111 42.1686 52.4732 35.9736 48.9074C29.7785 45.3416 23.2404 43.3168 17.5686 43.2038C12.5788 43.1056 8.83992 44.571 7.31343 47.2232C7.30474 47.239 7.29254 47.2539 7.28298 47.2697C7.14666 47.7666 7.0296 48.2643 6.92306 48.7636C9.06597 47.9077 11.5509 47.426 14.3158 47.3624C20.4645 47.2223 27.3543 49.1616 33.7194 52.8258C40.0846 56.4899 45.2262 61.4753 48.1923 66.8608C49.5222 69.2873 50.3554 71.678 50.691 73.9638C51.0696 73.6227 51.4411 73.2702 51.8011 72.9037C51.8106 72.8871 51.8167 72.8695 51.8263 72.8519C53.3528 70.1971 52.7425 66.229 50.1528 61.9632Z"
        fill="url(#paint3_linear_0_4)" />
      <path
        d="M31.3035 57.0194C21.8167 51.5584 11.354 50.739 6.33967 54.5965C6.35435 55.7976 6.45098 56.9963 6.62887 58.1843C8.10662 57.7299 9.63036 57.4414 11.1719 57.3241C16.7907 56.8787 22.9934 58.4199 28.6295 61.6659C34.2658 64.9119 38.7169 69.5036 41.1547 74.5823C41.8286 75.9735 42.3442 77.436 42.6919 78.9423C43.8086 78.4993 44.8943 77.9811 45.941 77.3914C46.758 71.1172 40.7932 62.4812 31.3035 57.0194Z"
        fill="url(#paint4_linear_0_4)" />
      <path
        d="M54.9887 53.8024C52.0072 48.9554 46.9273 44.3049 40.6884 40.7156C34.4496 37.1262 27.8859 35.0692 22.1956 34.9247C17.8579 34.8169 14.5026 35.8816 12.7686 37.8747C19.9965 36.6203 29.5449 38.6418 38.8134 43.9767C48.0817 49.3116 54.6285 56.5543 57.1717 63.4338C58.024 60.935 57.2602 57.4988 54.9887 53.8024Z"
        fill="url(#paint5_linear_0_4)" />
    </g>
  </g>
  <defs>
    <linearGradient id="paint0_linear_0_4" x1="51.7342" y1="19" x2="13.808" y2="21.3847"
      gradientUnits="userSpaceOnUse">
      <stop offset="0.0001" stop-color="#C7F284" />
      <stop offset="1" stop-color="#00BEF0" />
    </linearGradient>
    <linearGradient id="paint1_linear_0_4" x1="40.9813" y1="39.6324" x2="17.2049" y2="80.885"
      gradientUnits="userSpaceOnUse">
      <stop offset="0.0001" stop-color="#C7F284" />
      <stop offset="1" stop-color="#00BEF0" />
    </linearGradient>
    <linearGradient id="paint2_linear_0_4" x1="40.9813" y1="39.6324" x2="17.2049" y2="80.885"
      gradientUnits="userSpaceOnUse">
      <stop offset="0.0001" stop-color="#C7F284" />
      <stop offset="1" stop-color="#00BEF0" />
    </linearGradient>
    <linearGradient id="paint3_linear_0_4" x1="40.9814" y1="39.6324" x2="17.205" y2="80.885"
      gradientUnits="userSpaceOnUse">
      <stop offset="0.0001" stop-color="#C7F284" />
      <stop offset="1" stop-color="#00BEF0" />
    </linearGradient>
    <linearGradient id="paint4_linear_0_4" x1="40.9813" y1="39.6324" x2="17.2049" y2="80.885"
      gradientUnits="userSpaceOnUse">
      <stop offset="0.0001" stop-color="#C7F284" />
      <stop offset="1" stop-color="#00BEF0" />
    </linearGradient>
    <linearGradient id="paint5_linear_0_4" x1="40.9814" y1="39.6324" x2="17.205" y2="80.885"
      gradientUnits="userSpaceOnUse">
      <stop offset="0.0001" stop-color="#C7F284" />
      <stop offset="1" stop-color="#00BEF0" />
    </linearGradient>
    <clipPath id="clip0_0_4">
      <rect x="0.872215" width="64" height="64" rx="32" fill="white" />
    </clipPath>
    <clipPath id="clip1_0_4">
      <rect width="52.8878" height="52.8878" fill="white"
        transform="translate(5.8228 28.662) rotate(-0.229092)" />
    </clipPath>
  </defs>
</svg>